<svg width="300" height="300" viewBox="0 0 300 300" fill="none" xmlns="http://www.w3.org/2000/svg">
<path d="M141.1 119.47L133.73 119.29L126.36 119.48L118.99 121.07L111.62 119.62L104.25 121.55L96.88 121.24L89.51 121.67L82.14 121.26L75.71 121.51C75.18 122.19 74.67 123.2 74.44 123.79C74.27 124.24 74.19 124.64 74.13 125.01C74.66 125.98 75.29 126.89 75.88 127.69L78.78 129.7L82.25 136.59L88.15 141.06L93.75 145.83L98.71 151.23L102.43 157.87L109.36 161.33L114.21 166.84L118.56 172.84L123.68 178.09L130.17 181.96L135.22 187.27L139.39 193.45L144.76 196.98L150.06 193.38L155.52 188.43L159.73 182.27L164.53 176.7L170.45 172.25L176.81 168.23L181.93 162.98L185.19 155.89L190.77 151.11L196.93 146.9L201.05 140.66L206.91 136.16L212.35 131.23L217.17 125.69L221.39 120.62L214.76 119.4L207.38 120.82L200.01 119.28L192.64 121.73L185.27 120.43L177.9 121.37L170.53 119.37L163.16 118.97L155.8 118.78L148.43 119.67L141.06 119.47H141.1Z" fill="#DB3F29"/>
<path d="M85.54 126.57L136.6 126.57L187.66 126.57H216.55C219.77 126.57 219.77 121.57 216.55 121.57L85.54 121.57C82.32 121.57 82.32 126.57 85.54 126.57Z" fill="#212B50"/>
<path d="M80.4 128.42C100.28 147.82 120.17 167.21 140.05 186.61C145.65 192.07 151.24 197.53 156.84 202.99C157.76 203.89 159.47 204.02 160.38 202.99L212.87 143.12C217.79 137.51 222.71 131.89 227.63 126.28C228.52 125.27 228.63 123.74 227.63 122.74C226.72 121.83 224.99 121.72 224.09 122.74L171.6 182.61C166.68 188.22 161.76 193.84 156.84 199.45H160.38C140.5 180.05 120.61 160.66 100.73 141.26C95.13 135.8 89.54 130.34 83.94 124.88C81.64 122.63 78.1 126.16 80.4 128.42Z" fill="#212B50"/>
</svg>
