<svg xmlns="http://www.w3.org/2000/svg" viewBox="0 0 300 300"><path fill="#DB3F29" d="M44.76 260.68c-1.31 0-2.62-.51-3.6-1.53-.21-.21-.39-.44-.55-.68-.77-.85-3.36-3.47-5.53-5.62a4.987 4.987 0 01-1.48-3.59c0-.83.22-1.64.61-2.36.13-.26.47-.97.96-1.96 3.5-7.23 5.61-11.47 6.97-14.04-.98-1.01-2.13-2.19-3.22-3.3a5.01 5.01 0 01-1.43-3.57v-.08c0-.28 0-1.06-.02-2.19-.17-13.9-.17-20.95.1-24.75l-.35-.32c-2.79-2.59-4.07-3.77-4.09-6.17 0-.44.05-.87.16-1.29 2.42-11.2 3.79-17.16 4.7-20.47-.15-.38-.26-.78-.32-1.19a5.16 5.16 0 01.31-2.67c.28-1.2 1.03-5.05 1.64-8.2 1.25-6.41 2.01-10.31 2.57-12.76-1.42-1.47-3.49-3.59-5.42-5.55a4.988 4.988 0 01-1.28-4.71c2.58-10.36 4.18-16.1 5.27-19.39-.57-.79-.97-1.74-1.03-2.9-.02-.38 0-.76.08-1.13.08-1.08.29-4.73.49-8.26.22-3.82.47-8.19.68-11.62.09-1.5.17-2.72.24-3.71-1.27-1.27-2.11-2.47-2.13-4.27 0-.34.03-.68.09-1.01.07-1.17.15-5.25.21-8.89.16-8.89.26-13.88.48-16.83-.63-.63-1.34-1.32-1.75-1.73-1.66-1.63-2.67-2.62-2.66-4.75 0-1.35.56-2.64 1.53-3.57 2.09-2.01 4.57-2.12 17.57-1.81.89.02 1.88.05 2.9.07v-.16A5.05 5.05 0 0159 40.06a4.988 4.988 0 014.04-1.37l18.27 2.09c-.09-.4-.09-.81-.09-1.33.01-1.34.57-2.63 1.53-3.56 1.14-1.1 2.74-1.6 4.3-1.33l24.34 4.1c.23-.41.52-.78.86-1.11 2.13-2.06 4.33-1.66 10.85-.45 3.7.68 8.38 1.63 12.9 2.54 1.35.27 2.79.56 4.2.85a5.002 5.002 0 014.97-2.73c7.13.72 14.79 1.44 20.39 1.91.25-.8.69-1.53 1.3-2.12 2.52-2.44 4.23-2.5 25.79 2.81.17-1.08.68-2.09 1.48-2.86 1.78-1.72 3.25-3.14 24.33 1.98v-.1c0-1.35.56-2.66 1.54-3.6 2.56-2.48 4.94-1.92 20.41 1.67 2 .47 4.36 1.01 6.66 1.53a5.02 5.02 0 011.51-3.11 5.004 5.004 0 017.48.62c.47.51 1.77 1.81 2.66 2.7 3.75 3.76 4.32 4.34 4.3 6.51a4.998 4.998 0 01-1.52 3.55c-2.65 2.56-5.13 2.17-23.36-2.06-.44-.1-.9-.21-1.36-.32.08.37.11.77.11 1.22 0 1.35-.56 2.66-1.53 3.6a4.99 4.99 0 01-4.77 1.23c-7.06-1.89-14.94-3.84-21.16-5.21.01.17.02.34.02.52a4.928 4.928 0 01-1.53 3.54c-2.09 2.02-4.35 1.49-7.77.7-1.9-.44-4.5-1.08-7.39-1.8-3.81-.94-9.49-2.35-14.13-3.38-.25.51-.6.99-1.02 1.39-1.81 1.75-2.18 2.11-24.02-.04-.26.76-.69 1.45-1.27 2.01-2.01 1.94-3.84 1.6-8.73.67-2.56-.48-5.98-1.18-9.59-1.9-3.01-.61-6.75-1.36-10.05-2a5.001 5.001 0 01-5.25 2.6l-20.06-3.38c.02.19.02.39.02.6 0 1.42-.62 2.77-1.68 3.71a5.012 5.012 0 01-3.88 1.23l-21.14-2.42a5.11 5.11 0 01-1.36 2.32c-2.06 1.99-4.37 2-16.29 1.71-1.27-.03-2.72-.07-4.19-.09v.35c0 .51-.08 1-.23 1.48-.26 2.24-.43 11.51-.53 17.14-.06 3.55-.11 6.02-.18 7.78.03.02.05.05.07.07.84.78 2.12 1.96 2.13 4.14 0 .33-.03.65-.09.97-.17 1.68-.72 11.19-1.05 16.94-.17 2.93-.29 5.06-.41 6.64.67.6 1.67 1.74 1.75 3.6.04 1.04-.24 2.06-.79 2.92-.78 1.89-3.01 10.01-4.95 17.66 6.89 7.04 6.89 7.2 6.87 9.22 0 .68-.15 1.34-.42 1.96-.48 1.75-1.98 9.41-2.88 14.06-.6 3.06-1.02 5.22-1.35 6.78.23.47.4.98.48 1.51.16 1.05-.03 2.1-.51 3.02-.63 1.96-2.64 10.63-4.47 19.02l.44.41c2.61 2.42 3.8 3.53 3.82 5.87 0 .55-.08 1.09-.25 1.6-.18 1.62-.33 7.37-.13 24.81v.4c5.92 6.05 5.92 6.19 5.89 8.22a4.963 4.963 0 01-1.17 3.13c-.8 1.23-3.33 6.23-7.53 14.88 4.68 4.67 5.11 5.37 5.09 7.42 0 1.35-.56 2.64-1.53 3.57a4.96 4.96 0 01-3.47 1.4zM39.94 257c.1.37.24.73.42 1.05-.18-.34-.32-.69-.42-1.05zm12.2-23.53zm-7.25-6.88s-.06.05-.08.08c.03-.03.06-.05.08-.08zm2.75-30.01zm-6-2.55zm1.25-1.99c-.25.75-.68 1.43-1.25 1.99.62-.6 1.02-1.29 1.25-1.99zm4.2-20.81zm0 0zm-7.9-8.14c-.09.09-.18.18-.26.27.08-.09.17-.19.26-.27zm12.02-16.94zm0 0zm0 0zm-1.13-29.53zm0 0zm.79-1.05zm-1.22-4.35h.04v-.27c0 .09-.02.18-.03.27zm-8.41-3.73zm8.63-19.19zm0 0zm0 0zm-.83-5.88c-.05.52-.11.94-.18 1.29.12-.43.17-.86.18-1.29zm-8.46-3.68zm1.05-28.27zm213.88-7.39zm.65-.77zm.08-5.53c.27.42.47.86.6 1.32-.13-.48-.34-.93-.6-1.32z"></path><path fill="#D7A449" d="M100.84 237.12a5 5 0 01-4.93-4.22c-.1-.64-.08-1.27.05-1.86-.22-2.91-2.18-13.21-3.04-17.76q-1.58-8.32-.3-10.14c.26-.36.56-.69.89-.97 1.69-5.5 1.22-29.59.91-45.74-.23-11.67-.44-22.69-.22-31.22.18-7.02.5-12.51 2.21-15.79-.11-.55-.24-1.12-.32-1.53-.7-3.26-1.02-4.75.27-6.64.78-1.13 2-1.91 3.35-2.12.53-.08 1.07-.08 1.6 0l13.86 2.28c-.66-4.25-.42-4.58.58-5.98a4.997 4.997 0 015.48-1.89l15.05 4.41a5.056 5.056 0 013.44-2.27c1.56-.25 1.59-.25 14.62 4.06.67.22 1.38.46 2.08.69a5.017 5.017 0 014.88-2.6c4.97.47 10.33.97 14.21 1.31.14-.46.37-.92.71-1.41.78-1.1 1.97-1.84 3.3-2.05 1.78-.28 2.69-.16 15.65 5.2-.07-1.56.24-2.23.93-3.21.78-1.1 1.98-1.85 3.31-2.06 1.25-.2 2.54-.4 15.71 4.99-.48-3-.34-3.88.65-5.29.78-1.1 1.98-1.84 3.31-2.06 1.75-.28 2.57-.03 12.58 3.75 1.2.46 2.6.99 4 1.5-.08-1.39.19-2.08.91-3.1a4.995 4.995 0 013.29-2.03 4.994 4.994 0 015.72 4.16c.03.19.05.38.06.57.09.6.36 2.19.55 3.27.81 4.7.96 5.55-.29 7.3a4.997 4.997 0 01-3.28 2.03c-1.89.3-3.25-.11-14.48-4.35-.62-.23-1.27-.48-1.94-.73.61 3.61.5 4.45-.56 5.95a5.039 5.039 0 01-3.31 2.06c-.93.15-1.88.03-2.74-.34-4.38-1.86-9.28-3.88-13.16-5.39.14.97.19 2.41-.88 3.87a4.992 4.992 0 01-3.25 1.98q-1.58.25-9.17-2.9c-2.19-.91-5.38-2.23-8.14-3.33a4.964 4.964 0 01-3.26 1.99c-.7.11-1.08.17-15.24-1.16-.13.61-.38 1.18-.79 1.76-.78 1.12-2 1.89-3.34 2.11q-1.41.22-11.13-2.99c-1.76-.58-3.9-1.29-5.86-1.93-.04.06-.08.11-.11.17a5.007 5.007 0 01-5.49 1.91l-13.75-4.03c.37 2.16.52 3.42-.65 5.06-1.11 1.54-3 2.32-4.87 2.01l-13.81-2.27c.12 1.47-.1 2.56-.88 3.7-.21.3-.45.58-.71.83-1.34 5.11-.94 26.08-.64 41.58.23 12.04.47 24.48.19 33.93-.25 8.44-.81 14.16-2.58 17.44.21 1.1.47 2.5.72 3.8 4 21.05 3.73 21.43 2.24 23.54a5.16 5.16 0 01-3.36 2.1c-.27.04-.53.06-.79.06zm-1.17-9.86zm.36-.07zm0 0zm0 0zm0 0zm0 0zm-4.14-26.1zm6.48-85.11zm77.22-10.43zm61.79-2.28zm0 0zm.91-.23zm3.29-4.62z"></path></svg>