<svg width="149" height="174" viewBox="0 0 149 174" fill="none" xmlns="http://www.w3.org/2000/svg">
<path d="M141.075 161.493C133.995 152.993 127.575 143.963 121.885 134.473C116.205 125.003 111.225 115.143 106.225 105.293C105.795 104.443 105.365 103.603 104.935 102.753C109.335 97.9432 113.625 93.0432 117.725 87.9932C123.855 80.4332 129.465 72.4532 133.995 63.8232C134.845 62.2032 133.435 60.2432 131.605 60.7132C117.405 64.3732 103.145 67.8232 88.8346 71.0532L74.4346 42.7032L56.4346 7.25324C55.5046 5.42324 52.3446 6.24324 52.4946 8.32324C54.2246 32.2132 51.9646 55.9032 48.6446 79.5032C43.5646 80.4932 38.4846 81.4532 33.4046 82.3932C24.1346 84.0932 14.8546 85.6932 5.55462 87.2132C3.77462 87.5032 3.48462 90.3132 5.04462 91.0832C18.1846 97.5432 31.0846 104.483 43.7146 111.883C42.5546 119.353 41.4246 126.813 40.4146 134.283C38.8446 145.943 37.5646 157.633 36.9246 169.383C36.8246 171.213 39.3146 172.173 40.5346 170.883L76.6546 132.663C86.4946 139.333 96.1446 146.283 105.565 153.533C109.845 156.833 113.975 160.373 118.345 163.543C122.365 166.453 126.855 168.513 131.895 167.583C132.925 167.393 133.785 165.973 133.375 164.983C128.495 153.273 122.245 142.243 114.595 132.103C114.235 131.623 113.695 131.353 113.125 131.253C108.535 124.863 103.685 118.663 98.5846 112.663L98.4146 112.433C98.2846 112.253 98.1446 112.103 97.9946 111.973C97.7346 111.673 97.4746 111.363 97.2146 111.063C98.7758 109.414 100.329 107.757 101.875 106.093C106.735 115.673 111.565 125.273 116.995 134.543C123.175 145.103 130.245 155.103 138.075 164.503C139.825 166.593 142.805 163.593 141.065 161.513L141.075 161.493ZM74.1146 101.223C73.8946 101.753 73.6846 102.293 73.4646 102.823C72.2046 102.353 70.9546 101.883 69.6946 101.413C68.8846 101.093 68.0746 100.773 67.2646 100.443C67.8746 100.083 68.4346 99.6832 68.9346 99.2632C71.1746 99.5132 73.4246 99.7132 75.6746 99.8632C75.0146 100.013 74.4146 100.453 74.1046 101.223H74.1146ZM95.2346 127.893C92.3746 125.933 89.4646 124.043 86.5046 122.253C86.6946 122.053 86.8946 121.853 87.0846 121.653C88.6746 122.663 90.2346 123.703 91.7846 124.763C92.9246 125.823 94.0746 126.863 95.2346 127.903V127.893ZM65.2546 76.1432C65.2146 75.6632 65.1746 75.1732 65.1246 74.6932C65.4446 74.8932 65.8046 75.0232 66.1646 75.0732C66.2646 75.3332 66.3746 75.6132 66.4846 75.8932C66.0746 75.9832 65.6646 76.0632 65.2546 76.1532V76.1432ZM63.3146 81.0132C63.3146 80.9532 63.3246 80.9032 63.3346 80.8432C64.3446 80.6332 65.3446 80.4332 66.3546 80.2232C65.6246 80.4332 64.8946 80.6532 64.1646 80.8732C63.8846 80.9232 63.6046 80.9732 63.3246 81.0132H63.3146ZM65.0746 85.6632C64.7346 85.6632 64.3846 85.6632 64.0446 85.6832L65.6546 85.2332C66.3246 85.1532 66.9846 85.0832 67.6546 85.0032C66.7946 85.2332 65.9346 85.4532 65.0746 85.6632ZM76.0546 110.183C75.7846 110.043 75.5146 109.913 75.2446 109.773C75.4346 109.343 75.6246 108.913 75.8046 108.483C75.9046 108.693 76.0446 108.903 76.2346 109.103C76.3246 109.203 76.4246 109.303 76.5146 109.403C76.3646 109.663 76.2146 109.923 76.0546 110.183ZM71.8746 106.783L71.4246 107.893C70.3346 107.373 69.2446 106.853 68.1446 106.343C66.5146 105.403 64.8946 104.453 63.2746 103.493C64.9246 104.113 66.5746 104.723 68.2146 105.343C69.4246 105.823 70.6446 106.303 71.8646 106.773L71.8746 106.783ZM51.7446 133.043C51.9046 133.213 52.0946 133.353 52.3046 133.453C51.9446 133.943 51.5946 134.433 51.2446 134.933C51.3746 134.393 51.5046 133.853 51.6546 133.313C51.6746 133.233 51.7046 133.143 51.7446 133.053V133.043ZM61.2846 124.633C61.1346 124.633 60.9746 124.643 60.8146 124.683C60.7446 124.513 60.6646 124.333 60.5946 124.163C60.8146 124.323 61.0446 124.483 61.2746 124.633H61.2846ZM80.0546 118.493C79.9946 118.433 79.9346 118.373 79.8846 118.313C80.9546 118.773 82.0346 119.233 83.1046 119.693C82.9946 119.803 82.8946 119.923 82.7846 120.033C81.8846 119.513 80.9746 119.003 80.0646 118.493H80.0546ZM78.8746 104.833C78.4146 104.663 77.9446 104.483 77.4846 104.313C77.7346 103.653 77.9746 103.003 78.2146 102.343C78.5446 101.403 78.2346 100.673 77.6546 100.243C77.9546 100.243 78.2646 100.183 78.6046 100.023C79.3346 100.053 80.0546 100.083 80.7846 100.103C80.2246 101.713 79.5846 103.293 78.8846 104.843L78.8746 104.833ZM80.9246 93.0632C80.6846 93.2432 80.4546 93.4232 80.2146 93.5932C78.9446 93.1832 77.6746 92.7832 76.3946 92.4132C77.2046 92.1532 78.0246 91.8932 78.8346 91.6232C79.5146 92.1232 80.2146 92.6032 80.9346 93.0632H80.9246ZM53.5246 117.723C53.5246 118.033 53.5946 118.363 53.7346 118.683C54.0346 119.383 54.3246 120.083 54.6246 120.783C53.9246 120.183 53.2146 119.593 52.5146 118.993C52.4946 118.483 52.4746 117.973 52.4346 117.453C52.4246 117.293 52.3846 117.133 52.3446 116.983C52.7446 117.223 53.1346 117.473 53.5346 117.713L53.5246 117.723ZM82.9246 109.013C83.2746 108.263 83.2346 107.293 82.6846 106.593C83.6346 104.493 84.4646 102.343 85.1746 100.143H85.6546C84.8446 103.453 84.5646 106.893 84.8546 110.323C84.8546 110.413 84.8746 110.503 84.8946 110.593C84.2446 110.063 83.5846 109.543 82.9246 109.013ZM77.4646 69.7032C76.8346 67.5132 76.1346 65.3532 75.3446 63.2232C76.3246 64.3832 77.3446 65.5132 78.4046 66.6032C80.0046 68.4932 81.6046 70.3932 83.2046 72.2832C82.0446 72.5432 80.8746 72.7932 79.7146 73.0432C78.9746 71.9232 78.2346 70.8032 77.4646 69.6932V69.7032ZM89.8746 112.523C89.4946 112.933 89.1046 113.333 88.7246 113.743L87.1446 112.433C87.6046 112.413 88.0646 112.223 88.4746 111.823C88.5946 111.703 88.7146 111.583 88.8246 111.463C89.0446 111.683 89.3046 111.843 89.5946 111.943C89.6846 112.133 89.7846 112.333 89.8746 112.523ZM80.0646 86.7132C79.9846 86.6532 79.9046 86.5932 79.8246 86.5432C80.5946 86.1432 81.3546 85.7332 82.1246 85.3332C82.2146 85.5032 82.3146 85.6832 82.4046 85.8532C81.6246 86.1432 80.8446 86.4332 80.0646 86.7132ZM86.3646 84.3032C86.1946 83.9832 86.0246 83.6732 85.8546 83.3532C87.0346 82.7332 88.2246 82.1032 89.4046 81.4832C89.6146 81.9032 89.8346 82.3232 90.0446 82.7432C88.8242 83.2811 87.5974 83.8044 86.3646 84.3132V84.3032ZM68.6246 42.0932C68.5346 41.3932 68.4446 40.6932 68.3446 39.9932C69.1746 41.6332 70.0146 43.2832 70.8446 44.9232C70.1246 43.9632 69.3746 43.0232 68.6246 42.0832V42.0932ZM63.9746 33.4732C63.9346 33.1232 63.8946 32.7632 63.8646 32.4132C63.5746 29.7632 59.4446 29.6532 59.6346 32.4132C59.7746 34.5832 59.8746 36.7532 59.9146 38.9132C59.7146 39.0632 59.5446 39.2432 59.4046 39.4532C59.1146 39.5232 58.8446 39.6632 58.6246 39.8832L58.5646 39.2032C58.4646 38.1732 57.8346 37.5332 57.0846 37.2832C57.3546 30.8932 57.4246 24.4932 57.2246 18.1032C59.7546 23.0932 62.2846 28.0732 64.8146 33.0632C64.5046 33.1432 64.2146 33.2932 63.9746 33.4932V33.4732ZM48.9446 109.073C48.8946 109.353 48.8446 109.623 48.7846 109.903L48.3346 109.633C48.3746 109.343 48.4246 109.063 48.4646 108.773C48.6246 108.873 48.7846 108.973 48.9346 109.073H48.9446ZM62.9246 131.873C63.9646 130.903 65.0046 129.933 66.0446 128.973C64.7841 130.842 63.415 132.635 61.9446 134.343C62.3146 133.543 62.6346 132.713 62.9246 131.883V131.873ZM127.935 66.0032C126.485 68.5032 124.955 70.9432 123.345 73.3232C123.815 71.8132 122.175 70.5832 120.785 70.8432C120.125 70.6232 119.325 70.7132 118.615 71.2732C117.685 72.0232 116.775 72.7832 115.865 73.5632C115.315 73.8832 114.765 74.1932 114.225 74.5132C113.845 73.9532 113.215 73.5432 112.565 73.4432C112.085 71.9232 109.815 71.1732 108.725 72.9332C108.195 73.7932 107.655 74.6432 107.105 75.4932C106.865 75.2532 106.575 75.0732 106.245 74.9932C106.025 73.2232 103.215 72.9132 102.305 74.4232L100.325 77.7032C98.2046 78.8432 96.0546 79.9432 93.8846 80.9732L93.1346 79.5032L101.115 75.2832C102.305 74.6532 102.375 73.3232 101.805 72.3832C102.965 72.1132 104.135 71.8432 105.295 71.5632C112.855 69.7732 120.395 67.9132 127.925 65.9932L127.935 66.0032ZM53.4746 75.4332C53.9046 75.7332 54.4546 75.8932 54.9946 75.8732L54.6946 78.2832C54.1446 78.3932 53.5946 78.5032 53.0346 78.6132C53.1846 77.5532 53.3246 76.4932 53.4746 75.4332ZM35.9046 102.463C28.3246 98.2132 20.6546 94.1432 12.8946 90.2332C15.8446 89.7432 18.7946 89.2332 21.7446 88.7132C21.7146 88.8532 21.6846 88.9932 21.6746 89.1332C21.2646 90.1732 21.5746 91.4232 22.9646 91.7532C22.7246 92.5532 22.9446 93.4532 23.9346 94.0232C24.5946 94.4032 25.2546 94.7732 25.9146 95.1432C26.1346 95.6232 26.5246 96.0432 27.1146 96.2832C28.1246 96.7032 29.1346 97.0932 30.1646 97.4532C32.7046 98.7932 35.2646 100.083 37.8546 101.323C40.0546 103.023 42.3046 104.663 44.6046 106.233C44.5446 106.603 44.4846 106.973 44.4346 107.343C41.6046 105.693 38.7646 104.063 35.9146 102.463H35.9046ZM47.9546 114.353C47.8646 114.843 47.7746 115.333 47.6846 115.813C47.5746 116.403 47.7146 116.943 47.9946 117.393C47.5446 118.303 47.1146 119.233 46.7146 120.163C47.0146 118.163 47.3246 116.163 47.6346 114.153C47.7446 114.213 47.8546 114.283 47.9646 114.343L47.9546 114.353ZM60.0546 144.033C53.8846 150.563 47.7046 157.093 41.5346 163.633C41.7546 160.563 42.0146 157.493 42.3146 154.433C42.8346 154.313 43.3146 154.013 43.6246 153.503C43.7146 153.363 43.7846 153.223 43.8746 153.083C44.5046 153.333 45.2646 153.333 45.8046 152.983C47.3646 151.993 48.8546 150.883 50.2546 149.693C50.4446 149.583 50.6346 149.463 50.8146 149.343C51.1046 149.263 51.3846 149.093 51.6546 148.813C59.5846 143.753 66.2046 136.893 71.0546 128.873C71.7446 129.323 72.4246 129.783 73.1146 130.243C68.7546 134.843 64.4046 139.433 60.0546 144.033ZM107.705 149.833C100.154 144.026 92.4654 138.401 84.6446 132.963C84.1346 132.603 83.6146 132.263 83.1046 131.903C84.2546 131.863 85.2746 130.953 85.3346 129.903C85.6846 130.113 86.0446 130.323 86.3946 130.533C97.4385 140.569 109.586 149.319 122.605 156.613C123.435 157.073 124.265 156.923 124.875 156.463C126.055 158.783 127.165 161.133 128.215 163.513C124.665 163.083 121.405 160.593 118.685 158.453C115.025 155.573 111.395 152.653 107.705 149.813V149.833ZM94.3546 107.743L93.8446 107.173C94.1346 106.333 94.3946 105.483 94.6146 104.623C94.8646 104.283 95.1146 103.933 95.3546 103.583C96.7846 102.913 98.1646 102.183 99.5246 101.393C99.6146 101.573 99.7046 101.753 99.7946 101.923C99.5746 102.153 99.3646 102.393 99.1446 102.623C97.5546 104.333 95.9446 106.033 94.3446 107.733L94.3546 107.743Z" fill="#DB3F29"/>
<path d="M147.585 61.1132C148.665 59.9032 148.065 57.2632 146.085 57.5032C128.365 59.6032 110.565 61.4932 92.8146 63.6332C88.7446 54.7532 84.6646 45.8632 80.5846 36.9932C75.0646 24.9932 69.5246 13.0032 63.9746 1.02323C63.2346 -0.586765 60.4246 -0.206763 60.1046 1.53324C55.9246 24.3332 51.7546 47.1332 47.5746 69.9332C42.5946 70.7532 37.6146 71.6232 32.6546 72.5532C22.1946 74.5232 11.7946 76.8232 1.51462 79.5732C-0.295384 80.0532 -0.505378 82.4932 1.00462 83.4432C14.2146 91.7432 27.3846 100.123 40.4946 108.583L35.9046 133.633L29.0546 171.023C28.6646 173.143 30.9346 174.473 32.5946 173.083C48.0234 160.131 63.0892 146.753 77.7746 132.963C87.5446 139.433 97.2746 145.943 106.985 152.503C116.805 159.143 126.585 165.823 136.345 172.553C138.595 174.103 140.715 170.433 138.485 168.903C138.175 168.683 137.855 168.473 137.545 168.253C138.665 167.853 139.585 166.553 138.945 165.143C129.365 143.873 119.735 122.623 110.065 101.383C114.645 96.7132 119.175 92.0132 123.665 87.2732C131.785 78.6932 139.755 69.9732 147.585 61.1332V61.1132ZM57.3346 40.0332C59.2246 29.6932 61.1246 19.3432 63.0146 9.00324C71.5146 27.3732 79.9846 45.7632 88.4246 64.1632C76.2446 65.6632 64.0946 67.2932 51.9846 69.2132L57.3246 40.0332H57.3346ZM90.3446 68.3332C95.2446 79.0332 100.135 89.7432 105.015 100.453C95.9446 109.663 86.7046 118.703 77.3046 127.583C66.6219 120.516 55.9017 113.506 45.1446 106.553L51.1746 73.6432C64.1846 71.5932 77.2546 69.9132 90.3346 68.3432L90.3446 68.3332ZM33.1646 98.8232C24.5846 93.3232 15.9746 87.8632 7.34462 82.4232C20.3646 79.1232 33.5246 76.5232 46.7646 74.3532C44.9546 84.2632 43.1346 94.1732 41.3246 104.083C38.6046 102.333 35.8946 100.573 33.1646 98.8332V98.8232ZM56.3746 146.863C49.0846 153.393 41.7046 159.823 34.2346 166.153C37.5946 147.783 40.9646 129.423 44.3246 111.053C54.2946 117.503 64.2346 124.013 74.1446 130.553C68.2746 136.053 62.3546 141.483 56.3646 146.853L56.3746 146.863ZM118.975 131.153C124.305 142.913 129.615 154.673 134.915 166.443C117.026 154.135 99.0324 141.981 80.9346 129.983C89.7246 121.663 98.3846 113.203 106.895 104.593C110.925 113.443 114.955 122.293 118.965 131.153H118.975ZM94.7446 67.8132C101.105 67.0532 107.455 66.3132 113.805 65.5632C122.815 64.4932 131.815 63.4332 140.825 62.3632C130.205 74.2232 119.325 85.8532 108.195 97.2432C103.725 87.4332 99.2446 77.6232 94.7546 67.8132H94.7446Z" fill="#212B50"/>
</svg>
